<svg width="20" height="20" viewBox="0 0 20 20" fill="none" xmlns="http://www.w3.org/2000/svg">
<g id="ri:instagram-fill">
<path id="Vector" d="M10.8567 1.66753C11.4648 1.6652 12.0729 1.67131 12.6809 1.68586L12.8425 1.6917C13.0292 1.69836 13.2134 1.7067 13.4359 1.7167C14.3225 1.75836 14.9275 1.89836 15.4584 2.1042C16.0084 2.31586 16.4717 2.60253 16.935 3.06586C17.3587 3.4822 17.6866 3.98582 17.8959 4.5417C18.1017 5.07253 18.2417 5.67836 18.2834 6.56503C18.2934 6.7867 18.3017 6.9717 18.3084 7.15836L18.3134 7.32003C18.3282 7.92769 18.3346 8.53553 18.3325 9.14336L18.3334 9.76503V10.8567C18.3354 11.4648 18.329 12.0729 18.3142 12.6809L18.3092 12.8425C18.3025 13.0292 18.2942 13.2134 18.2842 13.4359C18.2425 14.3225 18.1009 14.9275 17.8959 15.4584C17.6872 16.0148 17.3593 16.5189 16.935 16.935C16.5183 17.3586 16.0145 17.6865 15.4584 17.8959C14.9275 18.1017 14.3225 18.2417 13.4359 18.2834C13.2134 18.2934 13.0292 18.3017 12.8425 18.3084L12.6809 18.3134C12.0729 18.3282 11.4648 18.3346 10.8567 18.3325L10.235 18.3334H9.14419C8.53608 18.3354 7.92797 18.329 7.32003 18.3142L7.15836 18.3092C6.96054 18.302 6.76276 18.2937 6.56503 18.2842C5.67836 18.2425 5.07336 18.1009 4.54169 17.8959C3.9856 17.687 3.48189 17.3591 3.06586 16.935C2.64173 16.5186 2.31355 16.0147 2.10419 15.4584C1.89836 14.9275 1.75836 14.3225 1.71669 13.4359C1.70741 13.2381 1.69908 13.0403 1.69169 12.8425L1.68753 12.6809C1.67216 12.0729 1.66522 11.4648 1.66669 10.8567V9.14336C1.66437 8.53553 1.67048 7.92769 1.68503 7.32003L1.69086 7.15836C1.69753 6.9717 1.70586 6.7867 1.71586 6.56503C1.75753 5.67753 1.89753 5.07336 2.10336 4.5417C2.31284 3.98555 2.64166 3.48207 3.06669 3.0667C3.48244 2.64232 3.98583 2.31384 4.54169 2.1042C5.07336 1.89836 5.67753 1.75836 6.56503 1.7167L7.15836 1.6917L7.32003 1.68753C7.92768 1.67217 8.53552 1.66523 9.14336 1.6667L10.8567 1.66753ZM10 5.8342C9.44795 5.82639 8.89983 5.92838 8.38751 6.13425C7.87519 6.34012 7.4089 6.64576 7.01573 7.03341C6.62256 7.42106 6.31036 7.88298 6.09727 8.39233C5.88417 8.90169 5.77444 9.44831 5.77444 10.0004C5.77444 10.5526 5.88417 11.0992 6.09727 11.6086C6.31036 12.1179 6.62256 12.5798 7.01573 12.9675C7.4089 13.3551 7.87519 13.6608 8.38751 13.8666C8.89983 14.0725 9.44795 14.1745 10 14.1667C11.1051 14.1667 12.1649 13.7277 12.9463 12.9463C13.7277 12.1649 14.1667 11.1051 14.1667 10C14.1667 8.89496 13.7277 7.83515 12.9463 7.05375C12.1649 6.27235 11.1051 5.8342 10 5.8342ZM10 7.50086C10.3321 7.49474 10.6621 7.55486 10.9707 7.6777C11.2793 7.80054 11.5603 7.98365 11.7973 8.21632C12.0344 8.44899 12.2227 8.72656 12.3512 9.03281C12.4798 9.33907 12.546 9.66788 12.5461 10C12.5461 10.3322 12.48 10.661 12.3516 10.9673C12.2231 11.2736 12.0349 11.5512 11.7979 11.784C11.561 12.0167 11.28 12.1999 10.9715 12.3229C10.6629 12.4458 10.333 12.506 10.0009 12.5C9.33782 12.5 8.70194 12.2366 8.23309 11.7678C7.76425 11.299 7.50086 10.6631 7.50086 10C7.50086 9.33699 7.76425 8.7011 8.23309 8.23226C8.70194 7.76342 9.33782 7.50003 10.0009 7.50003L10 7.50086ZM14.375 4.5842C14.1062 4.59496 13.8519 4.70932 13.6655 4.90334C13.4791 5.09736 13.375 5.35597 13.375 5.62503C13.375 5.89408 13.4791 6.1527 13.6655 6.34672C13.8519 6.54074 14.1062 6.6551 14.375 6.66586C14.6513 6.66586 14.9162 6.55612 15.1116 6.36077C15.307 6.16542 15.4167 5.90046 15.4167 5.6242C15.4167 5.34793 15.307 5.08298 15.1116 4.88763C14.9162 4.69228 14.6513 4.58253 14.375 4.58253V4.5842Z" fill="#1A1919"/>
</g>
</svg>
