<svg width="20" height="20" viewBox="0 0 20 20" fill="none" xmlns="http://www.w3.org/2000/svg">
<g id="material-symbols:mail-outline">
<path id="Vector" d="M3.33332 16.6668C2.87499 16.6668 2.48249 16.5035 2.15582 16.1768C1.82916 15.8502 1.6661 15.4579 1.66666 15.0002V5.00016C1.66666 4.54183 1.82999 4.14933 2.15666 3.82266C2.48332 3.496 2.87555 3.33294 3.33332 3.3335H16.6667C17.125 3.3335 17.5175 3.49683 17.8442 3.8235C18.1708 4.15016 18.3339 4.54239 18.3333 5.00016V15.0002C18.3333 15.4585 18.17 15.851 17.8433 16.1777C17.5167 16.5043 17.1244 16.6674 16.6667 16.6668H3.33332ZM9.99999 10.8335L3.33332 6.66683V15.0002H16.6667V6.66683L9.99999 10.8335ZM9.99999 9.16683L16.6667 5.00016H3.33332L9.99999 9.16683ZM3.33332 6.66683V5.00016V15.0002V6.66683Z" fill="#1A1919"/>
</g>
</svg>
